# xmcd
#
# Track frame offsets:
# 150
# 14595
# 27930
# 42862
# 56464
# 70187
# 85945
# 95537
# 105377
# 115340
# 126050
# 138575
# 153715
# 161765
# 171585
# 191032
# 201632
# 217690
# 229870
#
# Disc length: 3155 seconds
#
#
# Revision: 2
# Processed by: cddbd v1.5.2PL0 Copyright (c) Steve Scherf et al.
# Submitted via: FreeRIP 2.40 
#
DISCID=120c5113
DTITLE=Big Joe Williams - Malvina My Sweet Woman
DYEAR=1973
DGENRE=Blues
TTITLE0=Whistling pine blues
TTITLE1=Mama don't allow no doggin' all the night
TTITLE2=Thousand year blues
TTITLE3=She's been shaking a little boogie
TTITLE4=Strange girl blues
TTITLE5=Early morning blues
TTITLE6=Shake a little boogie
TTITLE7=Early in the morning
TTITLE8=New car blues
TTITLE9=Taylor made stomp
TTITLE10=You done me wrong
TTITLE11=Black rat blues
TTITLE12=Poor beggar
TTITLE13=Everyday brings out a change
TTITLE14=Baby don't you wanna go
TTITLE15=Highway 61 blues
TTITLE16=Rooster blues
TTITLE17=Rollin' in your arms
TTITLE18=You are my sunshine
EXTD=YEAR: 1973 ID3G: 0
EXTT0=
EXTT1=
EXTT2=
EXTT3=
EXTT4=
EXTT5=
EXTT6=
EXTT7=
EXTT8=
EXTT9=
EXTT10=
EXTT11=
EXTT12=
EXTT13=
EXTT14=
EXTT15=
EXTT16=
EXTT17=
EXTT18=
PLAYORDER=
